<svg xmlns="http://www.w3.org/2000/svg" viewBox="0 0 17.25 16.76"><defs><style>.cls-1{fill:#fff;}</style></defs><g id="Layer_2" data-name="Layer 2"><g id="Layer_2-2" data-name="Layer 2"><path class="cls-1" d="M16.39,12.14c-.43-.24-2.51-1.36-2.9-1.52s-.67-.24-1,.18-1.17,1.36-1.43,1.64-.51.3-.94.07a11.8,11.8,0,0,1-3.39-2.28A12.53,12.53,0,0,1,4.47,7.15c-.24-.44,0-.66.22-.87s.45-.49.67-.74a2.65,2.65,0,0,0,.46-.7.81.81,0,0,0,0-.76c-.1-.22-.88-2.38-1.2-3.26s-.7-.74-1-.76S3.12,0,2.83,0A1.54,1.54,0,0,0,1.66.5,4.77,4.77,0,0,0,0,4C-.06,6.16.14,6.42,1.4,8.9a18.5,18.5,0,0,0,7.34,6.47c4.32,1.9,4.34,1.32,5.14,1.28a4.39,4.39,0,0,0,3-1.95,3.59,3.59,0,0,0,.33-2c-.11-.18-.39-.3-.81-.54Z"/></g></g></svg>